<?xml version="1.0" encoding="UTF-8"?>
<svg width="111px" height="39px" viewBox="0 0 111 39" version="1.1" xmlns="http://www.w3.org/2000/svg" xmlns:xlink="http://www.w3.org/1999/xlink">
    <!-- Generator: sketchtool 49.2 (51160) - http://www.bohemiancoding.com/sketch -->
    <title>299764DE-AE58-46B3-941F-54B351C11F5A</title>
    <desc>Created with sketchtool.</desc>
    <defs></defs>
    <g id="CIPS.ID" stroke="none" stroke-width="1" fill="none" fill-rule="evenodd">
        <g id="1-Cover-CIPS" transform="translate(-50.000000, -50.000000)" fill-rule="nonzero">
            <g id="Header" transform="translate(50.000000, 50.000000)">
                <g id="logo-cips">
                    <path d="M21.9508772,18.0929878 L33.980117,18.0929878 L33.980117,9.76981707 L17.0795322,0 L0,9.80945122 L0,29.3292683 L17,39 L34,29.2896341 L34,20.9466463 L21.6923977,20.9466463 L20.6187135,21.5411585 L20.6187135,21.5609756 L17.1590643,23.5625 L13.7789474,21.5807927 L13.7789474,17.617378 L17.1590643,15.6356707 L20.1614035,17.339939 L21.4935673,18.0929878 L21.9508772,18.0929878 Z M26.3847953,15.4969512 L22.348538,15.4969512 L17.0994152,12.5243902 L11.0152047,16.0716463 L11.0152047,23.1265244 L17.0994152,26.6935976 L22.5672515,23.5426829 L26.0467836,23.5426829 L26.0467836,24.7317073 L16.980117,29.9039634 L7.93333333,24.7515244 L7.93333333,14.347561 L17.0596491,9.11585366 L25.9076023,14.2484756 L26.5836257,14.6646341 L28.0350877,15.5365854 L28.0549708,15.5365854 L26.3847953,15.4969512 Z M31.2760234,23.5426829 L31.2760234,27.7240854 L17,35.8887195 L2.72397661,27.7637195 L2.72397661,11.375 L17.0994152,3.13109756 L31.2959064,11.3353659 L31.2959064,14.2088415 L28.1146199,12.3856707 L17.0795322,6.00457317 L5.22923977,12.8018293 L5.22923977,26.3368902 L17,33.054878 L28.7707602,26.3170732 L28.7707602,23.5625 L31.2760234,23.5625 L31.2760234,23.5426829 Z" id="Shape" fill="#1D1D1B"></path>
                    <polygon id="Shape" fill="#9BD3B3" points="27.9802372 15.46 26.5375494 14.58 25.8656126 14.16 25.8656126 14.18 17.0711462 9 8 14.28 8 24.8 17.0118577 30 26.0237154 24.78 26.0237154 23.58 22.5652174 23.58 17.1304348 26.76 11.083004 23.16 11.083004 16.04 17.1304348 12.46 22.3478261 15.46 28 15.46"></polygon>
                    <path d="M62.1412051,13.8918919 L59.2334145,15.7162162 C58.2641509,14.2162162 56.7608034,13.3243243 54.8618381,13.3243243 C51.7958004,13.3243243 49.5209982,15.6351351 49.5209982,19 C49.5209982,22.4864865 51.8749239,24.6756757 54.8618381,24.6756757 C56.7410225,24.6756757 58.2641509,23.8243243 59.2729763,22.3040541 L62.0225198,24.3310811 C60.4993914,26.5810811 57.9872185,28 54.881619,28 C49.6594644,28 46,24.2297297 46,19 C46,13.7905405 49.6594644,10 54.881619,10 C58.0267803,10 60.7565429,11.4797297 62.1412051,13.8918919 Z M68.2139379,27.6756757 L68.2139379,10.3243243 L71.5964699,10.3243243 L71.5964699,27.6756757 L68.2139379,27.6756757 Z M81.9616555,27.6756757 L78.5791236,27.6756757 L78.5791236,10.3243243 L85.4826537,10.3243243 C89.517955,10.3243243 91.6740718,12.472973 91.6740718,15.8378378 C91.6740718,19.1621622 89.517955,21.3310811 85.5024346,21.3310811 L81.9418746,21.3310811 L81.9418746,27.6756757 L81.9616555,27.6756757 Z M81.9616555,18.1689189 L85.423311,18.1689189 C87.2827145,18.1689189 88.2124163,17.4189189 88.2124163,15.8378378 C88.2124163,14.2972973 87.2629337,13.5067568 85.423311,13.5067568 L81.9616555,13.5067568 L81.9616555,18.1689189 Z M104.393183,13.222973 C102.513999,13.222973 101.149117,13.9932432 101.149117,15.3108108 C101.149117,16.5675676 102.612903,16.9932432 104.650335,17.3175676 L105.599817,17.4797297 C108.626293,17.9662162 111,19.3243243 111,22.3445946 C111,26.1554054 107.716372,28 104.076689,28 C101.505173,28 98.7556299,27.2297297 96.9357882,25.7297297 L98.6962873,22.9324324 C99.9227024,23.9256757 101.900791,24.7972973 104.09647,24.7972973 C105.975654,24.7972973 107.419659,24.0472973 107.419659,22.7094595 C107.419659,21.5135135 106.193244,21.0675676 103.819537,20.6824324 L102.751369,20.5 C99.7644553,20.0135135 97.5885575,18.6756757 97.5885575,15.5337838 C97.5885575,11.9054054 100.733719,10.0405405 104.333841,10.0405405 C106.707547,10.0405405 108.665855,10.5878378 110.802191,11.8851351 L109.199939,14.7027027 C107.854839,13.8513514 106.252587,13.222973 104.393183,13.222973 Z" id="Shape" fill="#333333"></path>
                </g>
            </g>
        </g>
    </g>
</svg>